<svg version="1.1" id="Layer_1" xmlns="http://www.w3.org/2000/svg" xmlns:xlink="http://www.w3.org/1999/xlink" x="0px" y="0px"
	 width="100%" viewBox="0 0 202 163" enable-background="new 0 0 202 163" xml:space="preserve">
<path fill="#000000" opacity="1.000000" stroke="none" 
	d="
M202.713593,52.742638 
	C203.000000,88.623634 202.955658,124.247429 203.077118,159.870651 
	C203.087799,163.005951 202.833206,164.120682 199.138458,164.111862 
	C134.383728,163.957062 69.628395,163.957809 4.873641,164.110626 
	C1.203764,164.119293 0.878132,163.047562 0.917293,159.882004 
	C1.102605,144.902390 1.000000,129.919220 1.000000,114.468658 
	C1.234496,113.763504 1.483858,113.320709 1.713171,113.332817 
	C8.100099,113.670105 13.063277,109.163132 19.074762,108.263832 
	C19.733536,108.165291 20.389690,108.098831 21.025803,107.883430 
	C27.451630,105.707611 27.512657,105.684151 30.170851,112.067490 
	C32.753502,118.269424 36.875507,123.535927 40.257469,129.251236 
	C49.103378,144.200287 63.584484,150.932648 79.018707,155.950851 
	C95.133171,161.190262 111.263603,160.467041 127.603363,155.457672 
	C144.651352,150.231171 155.847290,137.942093 167.847961,125.595535 
	C165.501694,125.472420 163.704941,125.910583 161.943848,125.804626 
	C159.885895,125.680817 158.120392,126.205711 156.204651,126.824989 
	C154.100601,127.505142 152.490768,125.649757 150.929779,124.507454 
	C148.508850,122.735878 146.491257,120.503159 144.638016,118.125893 
	C143.858963,117.126556 143.059723,115.550392 141.515671,116.307487 
	C140.121338,116.991158 140.471558,118.661461 140.654877,119.933464 
	C141.201447,123.725822 141.830582,127.476578 141.021957,131.333298 
	C138.671356,142.544434 131.726547,148.166336 118.329834,149.465057 
	C115.680550,149.721893 113.074722,149.711914 110.735992,151.416382 
	C108.742447,152.869293 106.475655,151.790222 104.484993,151.155167 
	C93.072838,147.514526 84.947777,140.115326 79.948692,129.249878 
	C79.129494,127.469368 78.858040,125.377861 76.847908,123.911316 
	C75.504921,125.246750 76.146332,126.636032 76.686569,127.919670 
	C77.400490,129.616013 78.287933,131.351334 79.695145,132.473404 
	C85.571831,137.159378 85.662910,143.913605 86.315201,150.822571 
	C86.063499,151.408997 85.923134,151.628754 85.478363,152.103683 
	C75.725357,152.759323 66.374832,153.394470 58.333096,146.504852 
	C54.613026,143.317749 49.602169,141.752121 46.309124,137.785522 
	C44.997025,136.205063 43.781219,134.781418 43.956505,132.542740 
	C44.141090,130.185287 43.404095,127.971512 42.666359,125.741074 
	C41.084846,120.959602 42.262672,118.144188 47.084934,117.932686 
	C57.101353,117.493340 62.809612,110.962471 68.641113,104.303650 
	C69.519951,103.300133 70.263161,102.199913 70.824699,100.981682 
	C74.115799,93.841820 77.268028,92.075005 85.217712,92.736137 
	C88.702637,93.025970 91.720177,91.817505 94.501236,89.113632 
	C94.909966,88.597328 95.091789,88.408669 95.615692,88.036438 
	C97.189705,87.521263 98.320778,87.779930 99.163361,88.702950 
	C106.339111,96.563667 112.230240,104.940109 112.553452,116.267418 
	C112.760971,123.540115 110.321976,128.900482 104.685722,131.814804 
	C117.219521,123.798584 117.038979,112.765556 110.206139,101.527596 
	C106.124245,94.814117 100.286522,89.480789 95.391891,83.400063 
	C93.303673,80.805809 91.304352,78.164215 89.488785,75.376846 
	C88.399017,73.703743 87.777290,71.921051 89.631775,70.503593 
	C91.627342,68.978310 92.992577,70.403214 94.157700,71.960693 
	C100.015816,79.791649 106.716705,86.911743 113.023872,94.364059 
	C115.853699,97.707687 117.218727,101.878609 119.339523,105.911446 
	C119.526596,106.097137 119.961136,106.292130 120.187370,106.289024 
	C122.815712,103.611816 121.134880,100.764862 120.355247,98.256256 
	C118.888229,93.535851 116.182655,89.302956 113.911987,84.520569 
	C113.113220,83.215767 112.549072,82.175499 111.485512,81.037430 
	C110.283638,79.012848 108.425346,77.803947 108.328522,75.225784 
	C109.247192,73.614693 110.503502,73.276428 112.251198,73.205299 
	C119.489677,73.728943 126.042557,75.734848 132.716293,77.118187 
	C135.392990,77.673004 136.869125,79.214012 138.057938,81.725296 
	C141.379990,88.742966 144.063690,96.068176 150.354706,101.431236 
	C159.722778,109.417465 167.209229,108.768745 174.072937,98.557877 
	C179.187454,90.949272 181.198273,82.417412 180.454056,73.401939 
	C180.010605,68.030151 181.422974,64.251678 186.153351,61.386761 
	C189.832703,59.158390 193.045517,56.158649 196.622971,53.728310 
	C198.305389,52.585358 200.041321,50.744545 202.713593,52.742638 
z"/>
<path fill="#000000" opacity="1.000000" stroke="none" 
	d="
M1.273899,111.250336 
	C1.000000,75.578606 1.047503,40.157036 0.917805,4.736119 
	C0.906332,1.602808 1.642877,0.903643 4.747979,0.919148 
	C32.518990,1.057820 60.290981,1.000000 88.531342,1.000000 
	C90.965057,4.014904 88.763420,4.808724 86.544792,5.408836 
	C81.723373,6.712967 77.004059,8.343379 72.223686,9.764918 
	C66.581207,11.442824 61.946812,14.553530 57.879459,18.656113 
	C57.041489,19.501345 56.107353,20.186472 55.065075,20.690947 
	C47.102055,24.545111 41.766472,31.029606 37.239285,38.327175 
	C37.623886,39.284637 38.401009,38.927151 38.875942,38.719326 
	C46.533878,35.368324 51.484959,36.327801 56.978390,42.194901 
	C58.855515,44.199711 60.349342,48.442314 62.830692,47.514912 
	C65.589218,46.483910 63.424820,42.446861 63.421638,39.792355 
	C63.412876,32.478699 63.593506,25.458244 69.863754,20.207417 
	C73.281227,17.345560 76.929314,15.228580 81.432320,14.849935 
	C85.199242,14.533185 88.886299,14.241465 92.488503,12.656331 
	C97.409828,10.490725 102.023720,12.773550 106.277199,15.006211 
	C114.974449,19.571417 121.238533,26.494326 125.002075,35.633671 
	C128.656189,44.507256 130.330612,45.582634 140.105942,45.596947 
	C143.150940,45.601406 144.561829,48.087360 142.794067,50.728546 
	C141.227905,53.068520 139.177750,55.064747 137.404709,57.270477 
	C135.312057,59.873829 133.216980,62.256824 132.868118,65.905579 
	C132.598724,68.723038 125.580025,71.544289 120.999573,70.979828 
	C118.530640,70.675583 116.085403,69.904549 113.451485,71.607269 
	C106.648468,75.900322 105.735847,75.704582 101.829292,69.330086 
	C100.970482,67.928711 100.115784,66.529381 98.799957,64.992950 
	C96.582947,62.185169 95.551880,59.127224 93.723923,56.106522 
	C93.946457,52.690708 92.711281,49.676579 93.432442,46.529533 
	C94.817848,40.483788 97.880981,35.852596 103.479958,33.027313 
	C103.226074,32.730499 103.111900,32.603989 102.830826,32.262558 
	C102.369431,31.380247 101.849792,30.860750 101.139496,31.149435 
	C93.286110,34.341305 87.399757,47.074787 89.981606,55.447372 
	C92.096237,62.304806 96.064896,68.040817 101.322998,72.843491 
	C102.563805,73.976814 103.397179,75.404633 104.893272,76.738228 
	C105.989700,77.862946 106.550415,78.941345 107.497803,80.193993 
	C109.763741,83.374550 112.496681,85.657288 114.731262,88.346092 
	C119.738754,94.371429 122.903709,101.110725 120.701111,109.426498 
	C119.819572,109.604141 119.347534,109.465759 118.752487,108.828484 
	C117.336639,100.833961 113.198959,94.674469 108.085602,89.148354 
	C101.734451,82.284523 96.342682,74.615829 89.890869,67.843285 
	C87.366455,65.193390 86.826340,61.325905 84.150078,57.521385 
	C82.866043,63.054432 84.507454,67.057167 86.582512,70.844513 
	C88.893936,75.063278 91.838661,78.893669 94.649727,82.800049 
	C95.853485,84.472855 97.703239,86.063187 96.177414,88.804657 
	C95.940117,89.059830 96.006248,88.995583 96.039337,88.963486 
	C94.302544,91.073753 91.963470,90.788879 89.634727,90.389214 
	C83.399025,89.319023 77.264717,87.768822 71.090012,86.410118 
	C69.956200,86.160629 68.339645,86.053223 68.108475,84.903839 
	C67.157173,80.173912 63.233917,77.051598 61.774803,72.627068 
	C59.197556,64.811981 52.687622,60.799202 46.007835,57.399513 
	C41.750378,55.232666 37.531612,57.227589 34.133419,60.363060 
	C29.325386,64.799377 22.946705,77.268318 24.826757,85.093491 
	C27.448292,83.214302 29.087311,80.966034 29.483597,77.855888 
	C29.567717,77.195702 29.560774,76.500977 29.797153,75.886818 
	C33.272053,66.858398 42.478291,66.504501 49.599525,63.305565 
	C54.093643,61.286755 57.715942,64.793182 59.911720,68.566200 
	C62.421749,72.879189 63.631336,77.911797 67.017525,81.785851 
	C67.428932,82.256538 67.676231,83.223816 67.609734,83.515327 
	C66.076424,90.236862 66.680595,97.532738 62.322636,103.507332 
	C59.186756,107.806519 54.720989,107.780586 50.145287,107.258308 
	C42.246273,106.356697 34.282162,105.865913 27.640938,100.456848 
	C25.017752,98.320358 21.960899,99.380981 19.300093,101.242554 
	C15.341807,104.011902 11.780002,107.307274 7.770971,109.991936 
	C5.959878,111.204735 4.168997,113.299797 1.273899,111.250336 
z"/>
<path fill="#ED1C24" opacity="1.000000" stroke="none" 
	d="
M111.800278,70.195465 
	C114.749924,67.820892 117.267891,66.312469 121.174568,68.379868 
	C124.217087,69.989952 127.222404,65.720947 130.296921,66.731201 
	C129.773071,57.273670 138.578766,53.976543 142.638214,47.033821 
	C141.349579,47.134594 140.321167,47.065556 139.375351,47.312691 
	C131.994553,49.241268 127.279015,47.210884 124.109749,40.249748 
	C122.080582,35.792763 120.244659,31.381182 117.238144,27.336868 
	C112.161095,20.507315 105.405319,15.065627 97.591599,14.763004 
	C88.843109,14.424180 79.316841,15.431712 71.758057,21.711153 
	C64.134583,28.044333 65.841431,36.526657 66.465706,44.668156 
	C66.586990,46.249832 67.094711,47.920177 66.942055,49.531979 
	C66.802299,51.007595 68.065010,53.081070 65.854546,53.867737 
	C63.511364,54.701633 62.139324,52.850876 60.905956,51.339363 
	C59.048203,49.062649 57.450794,46.575523 55.642517,44.255951 
	C52.636192,40.399593 48.328285,39.282928 43.747402,38.813240 
	C42.650585,38.700783 42.642796,39.807087 42.344723,40.331280 
	C41.770908,41.340408 41.073776,43.168434 40.287182,42.787491 
	C37.154404,41.270321 36.301937,43.299503 35.007427,45.336128 
	C34.324036,46.411289 32.949829,46.235683 31.921766,45.361149 
	C30.896561,44.489040 30.599926,43.287975 31.356470,42.242554 
	C37.567524,33.659847 42.694466,24.173397 52.711502,18.930210 
	C56.437119,16.980122 59.142418,13.342178 63.075039,11.383936 
	C71.014191,7.430652 79.089417,4.004796 87.982491,2.871817 
	C88.527046,2.802441 88.993156,2.117284 89.247879,1.359319 
	C97.354233,1.000000 105.708466,1.000000 114.531349,1.000000 
	C115.609238,1.616981 116.337791,1.895863 117.212845,1.975651 
	C145.019897,4.511148 162.922501,21.071417 176.190643,43.953785 
	C180.226151,50.913471 182.311401,51.779823 189.436615,47.754623 
	C195.260880,44.464363 198.888168,44.942616 202.753250,49.738922 
	C203.000000,50.750000 203.000000,51.500000 203.000000,52.625000 
	C197.611511,54.735634 194.158859,59.360703 189.438217,62.100986 
	C188.174423,62.834602 187.087830,63.867203 185.853333,64.658752 
	C182.156830,67.028923 181.387833,69.765717 182.424728,74.378944 
	C184.588516,84.005867 181.105042,92.786240 175.681854,100.698677 
	C174.140457,102.947578 172.773590,105.454414 170.200363,106.973122 
	C162.760269,111.364220 156.488785,110.732559 149.862701,104.305077 
	C143.905487,98.526398 139.639877,91.573532 136.970032,83.706734 
	C136.122131,81.208374 134.792297,79.901863 132.023590,79.452156 
	C125.760323,78.434830 119.566025,76.992912 113.119728,75.387543 
	C112.641945,73.497429 110.996880,72.320419 111.800278,70.195465 
z"/>
<path fill="#ED1C24" opacity="1.000000" stroke="none" 
	d="
M1.000000,111.375000 
	C8.335515,107.878975 13.575985,101.816666 19.987280,97.390533 
	C22.315496,95.783218 23.830076,94.480682 26.701580,96.778168 
	C29.841951,99.290779 33.455055,101.838593 37.252914,102.759590 
	C43.245773,104.212883 49.551529,104.579826 55.750935,104.897629 
	C59.227139,105.075836 63.025097,100.345284 62.922356,96.216576 
	C62.833084,92.629128 63.651348,89.457878 65.186333,86.270493 
	C66.792068,82.936172 66.915489,80.181801 61.874905,79.899269 
	C59.385693,79.759735 56.668095,79.040085 58.886375,75.307014 
	C60.089920,73.281601 60.838333,71.155090 58.621391,69.038773 
	C56.191982,66.719612 53.632397,64.224884 50.137245,65.535423 
	C45.012283,67.457085 40.155537,70.086426 35.145466,72.326935 
	C33.689129,72.978218 32.156429,74.259865 32.363010,75.389839 
	C33.950905,84.075401 24.661060,86.728729 22.907293,93.501534 
	C20.406462,80.836464 22.541201,69.183784 31.084158,59.614227 
	C38.644119,51.145790 47.113365,51.730331 55.959133,61.057144 
	C61.070118,66.446060 65.297447,72.536552 67.273956,79.779350 
	C68.465919,84.147217 72.026527,84.162994 75.141197,84.882423 
	C81.801231,86.420769 88.535820,87.636284 95.656151,88.957710 
	C93.297539,95.238205 88.887253,97.236343 82.810486,94.939911 
	C80.835373,94.193504 74.023689,98.122238 74.040924,100.177589 
	C74.078423,104.648666 70.100151,106.525215 67.869865,109.269615 
	C62.698040,115.633575 56.477283,120.772232 47.233173,120.181435 
	C44.785759,120.025024 42.997982,121.729622 44.906113,124.841850 
	C46.609047,127.619385 47.108379,130.407227 46.387722,134.050385 
	C45.696667,137.543915 49.786453,139.649963 52.798698,141.271317 
	C56.218864,143.112213 59.902599,143.704529 62.790169,147.372284 
	C64.828354,149.961182 70.220093,149.945511 74.363373,150.041992 
	C77.615860,150.117737 80.992332,149.237045 84.512650,151.026550 
	C86.105949,151.741135 87.514351,151.624527 88.695671,152.262619 
	C87.631088,151.644760 86.219612,151.917145 85.502869,150.607574 
	C83.113853,148.669296 81.268646,147.149475 82.811752,143.326172 
	C84.023499,140.323868 81.402946,137.875473 79.247787,135.703796 
	C75.740440,132.169571 72.449890,128.529144 72.933952,122.909462 
	C73.089272,121.106300 73.590218,119.794701 74.886482,118.584282 
	C77.167267,116.454536 78.054741,115.848274 79.205467,119.867599 
	C83.349266,134.341339 91.354149,145.516663 107.113747,149.064941 
	C108.070038,149.280243 108.745636,149.573257 110.060730,149.234756 
	C119.893677,146.703842 131.411804,147.784805 136.802505,136.316071 
	C138.828644,132.005463 139.741653,127.451469 138.418854,122.484940 
	C137.628616,119.517944 138.081497,116.215775 138.009583,113.063492 
	C137.979736,111.754410 137.657684,109.964508 139.151962,109.580025 
	C140.521729,109.227577 141.886200,110.203690 142.859329,111.493782 
	C146.101669,115.792206 148.983566,120.330650 153.686432,123.432411 
	C156.876160,125.536201 159.485626,124.284660 161.926392,122.859314 
	C163.525009,121.925766 164.366272,119.095360 166.069931,122.604645 
	C166.163177,122.796722 166.447678,122.895973 166.643143,123.038429 
	C166.868210,122.433014 167.081100,121.822739 167.320526,121.223053 
	C168.186325,119.054390 169.683060,116.905106 172.043198,118.266525 
	C174.391449,119.621117 172.528885,121.484344 171.448944,123.201660 
	C165.876450,132.062912 158.265610,138.649429 150.316742,145.446548 
	C140.992645,153.419601 130.611389,157.566238 119.356110,160.165421 
	C99.002769,164.865601 79.754265,161.324921 61.522888,151.106964 
	C47.720692,143.371384 38.002834,131.904861 30.252779,118.520752 
	C28.309591,115.164925 27.124269,111.370262 25.579117,107.750275 
	C23.360664,110.122444 21.295004,113.303505 17.248123,110.684341 
	C16.523287,110.215225 15.921157,110.352455 15.634544,110.966438 
	C12.332963,118.039055 6.847989,115.003975 1.399666,114.001488 
	C1.000000,113.250000 1.000000,112.500000 1.000000,111.375000 
z"/>
<path fill="#000000" opacity="1.000000" stroke="none" 
	d="
M203.000000,49.531342 
	C200.081879,49.694408 196.541672,46.495689 194.696365,48.245811 
	C190.223419,52.488056 183.592255,50.936939 179.380157,55.059132 
	C179.154282,55.280190 178.806442,55.376637 178.658295,55.455254 
	C167.045670,26.885202 146.818161,8.652062 116.063560,2.881443 
	C115.504929,2.776624 115.048302,2.128170 114.772034,1.366687 
	C143.242554,1.000000 171.485321,1.046000 199.727356,0.925788 
	C202.424133,0.914309 203.121414,1.367887 203.086365,4.207917 
	C202.901932,19.157585 203.000000,34.110741 203.000000,49.531342 
z"/>
<path fill="#ED1C24" opacity="1.000000" stroke="none" 
	d="
M96.280121,89.126617 
	C92.522430,84.089394 88.869087,79.261848 85.746841,74.112282 
	C81.860992,67.703278 80.863701,60.701283 82.866501,53.369873 
	C83.160156,52.294899 82.944489,50.900288 84.731224,51.049778 
	C86.259186,51.177620 86.678314,52.754059 86.706116,53.520500 
	C87.171761,66.355904 97.132446,73.479492 103.979736,82.438362 
	C109.319183,89.424393 116.068871,95.445000 118.633797,104.275314 
	C118.903893,105.205162 118.862694,106.225441 118.898300,107.602844 
	C118.682274,108.211258 118.533852,108.420593 118.137436,108.335556 
	C114.985901,96.960022 106.589264,89.600304 99.710701,81.212845 
	C96.724297,77.571335 93.726448,73.939201 90.334221,70.584282 
	C91.286858,75.186928 94.570473,78.329147 97.306664,81.793793 
	C102.084114,87.843155 107.881554,93.069000 112.038803,99.606514 
	C116.025467,105.875763 118.679520,112.561821 116.997047,120.248543 
	C115.366806,127.696594 106.196190,135.041748 96.487869,135.700317 
	C96.555519,134.157684 97.962120,134.060028 98.920609,133.584976 
	C111.676125,127.263130 112.190247,117.478264 107.664795,105.299316 
	C105.338394,99.038467 100.691345,94.296577 96.280121,89.126617 
z"/>
<path fill="#ED1C24" opacity="1.000000" stroke="none" 
	d="
M111.638168,70.022964 
	C112.717682,71.323036 114.103653,72.606934 113.048264,74.783577 
	C111.718269,75.124718 110.540764,75.198029 109.104858,75.914360 
	C107.712082,77.811295 106.014885,77.497925 104.296387,78.091698 
	C96.186554,71.248993 90.128624,63.379818 87.860603,52.906292 
	C85.607773,42.502911 90.721687,35.071819 97.135109,31.011614 
	C101.070526,28.520182 105.587051,27.385450 109.118217,27.653391 
	C107.853058,29.784922 105.102592,29.106878 103.578568,31.031368 
	C103.510918,31.686901 103.607643,32.097267 103.845467,32.304527 
	C105.991615,31.901421 107.829948,29.964546 110.058807,31.687693 
	C97.134453,39.570251 93.175293,45.946560 95.885757,54.604958 
	C94.480202,59.417084 95.619202,62.024303 99.837852,63.745605 
	C102.665138,67.279274 104.631233,71.094925 108.315010,73.476913 
	C109.272896,72.431038 110.307800,71.301079 111.638168,70.022964 
z"/>
<path fill="#ED1C24" opacity="1.000000" stroke="none" 
	d="
M119.653328,109.253098 
	C121.221596,101.543030 117.057953,95.724007 113.263237,89.909737 
	C111.312958,86.921516 108.600235,84.430916 106.095520,81.411758 
	C104.141815,78.255196 106.905556,77.823959 108.575096,76.405945 
	C108.845703,76.140656 108.962601,76.033203 109.021027,75.979462 
	C110.307999,77.073357 111.536537,78.220978 112.792999,79.684898 
	C112.159706,81.606514 112.707527,82.559166 114.721184,82.886429 
	C119.980553,89.938614 123.848999,97.360832 123.003891,106.381050 
	C122.911301,107.369263 123.029457,108.395325 122.814201,109.350739 
	C121.975098,113.075066 121.665092,113.140709 118.104996,110.320015 
	C118.479881,109.656075 118.865738,109.435768 119.653328,109.253098 
z"/>
<path fill="#ED1C24" opacity="1.000000" stroke="none" 
	d="
M114.928894,82.591957 
	C114.255188,83.889381 113.776558,86.114883 111.973862,84.300919 
	C110.816521,83.136353 109.516479,81.324821 112.537430,80.062225 
	C113.481232,80.771561 114.141533,81.541931 114.928894,82.591957 
z"/>
<path fill="#ED1C24" opacity="1.000000" stroke="none" 
	d="
M119.726089,109.046844 
	C119.538033,109.395164 119.091507,109.623100 118.404755,109.925446 
	C118.105095,109.564735 118.045662,109.129623 117.937836,108.367844 
	C117.889435,108.041176 118.360062,108.021561 118.595375,108.011742 
	C119.042999,108.310097 119.255318,108.618271 119.726089,109.046844 
z"/>
<path fill="#ED1C24" opacity="1.000000" stroke="none" 
	d="
M100.057312,63.595787 
	C98.378891,64.788300 98.820732,65.913925 99.609108,67.178810 
	C100.184135,68.101379 101.220329,69.308136 99.692871,70.066551 
	C98.573586,70.622307 97.945671,69.320923 97.597313,68.467987 
	C95.438019,63.181137 91.361183,58.569954 91.177795,52.346321 
	C93.683647,52.131882 93.898354,54.278851 95.561630,54.859093 
	C97.222054,57.744793 98.610985,60.489323 100.057312,63.595787 
z"/>
<path fill="#ED1C24" opacity="1.000000" stroke="none" 
	d="
M108.483398,76.119858 
	C108.913300,78.149521 107.103264,79.049019 106.108902,80.813553 
	C105.007790,80.574493 104.127068,79.982391 103.982613,78.435944 
	C104.824104,76.365318 106.362465,76.004570 108.483398,76.119858 
z"/>
<path fill="#000000" opacity="1.000000" stroke="none" 
	d="
M169.126770,61.599445 
	C171.215088,62.987488 173.044922,64.053131 174.772278,65.264885 
	C176.827286,66.706474 180.856110,67.157471 180.501633,69.785339 
	C180.032074,73.266449 178.244797,76.894608 174.842865,79.027237 
	C172.484329,80.505768 171.341660,82.167564 172.476868,85.186234 
	C173.133102,86.931259 172.512741,89.481339 170.913025,90.357346 
	C165.804306,93.154915 160.596756,95.940933 155.118225,97.839218 
	C150.953110,99.282410 147.643875,96.549332 144.861908,93.399895 
	C143.141205,91.451920 144.859283,89.815804 145.344940,88.457924 
	C146.458710,85.343948 146.503815,84.001579 142.573273,83.904549 
	C137.892090,83.788986 137.036987,81.916824 138.858475,77.504326 
	C140.163986,74.341751 141.361343,71.458023 141.339661,67.594421 
	C141.300293,60.575188 149.434875,55.535904 154.930862,58.993870 
	C157.218338,60.433105 159.726166,59.994781 162.165405,59.968060 
	C164.510895,59.942368 166.770981,60.065445 169.126770,61.599445 
z"/>
<path fill="#000000" opacity="1.000000" stroke="none" 
	d="
M119.552261,12.783991 
	C123.693306,14.515179 127.562813,13.621400 131.289062,14.067123 
	C135.973038,14.627408 141.074493,13.944409 144.297150,19.170689 
	C145.309998,20.813242 148.582169,21.039831 150.797745,21.968218 
	C155.588455,23.975660 158.938904,26.949860 158.008606,32.796719 
	C157.596893,35.384441 158.618515,37.595707 159.905365,39.762283 
	C160.983688,41.577778 160.715424,42.710773 158.259338,43.025826 
	C153.580902,43.625950 149.009766,45.474686 144.471375,45.877636 
	C139.721786,46.299335 134.381226,44.583027 130.838898,41.023884 
	C127.770126,37.940556 125.765564,33.701286 127.540985,28.921043 
	C128.198166,27.151628 128.095276,25.452974 127.726791,23.735550 
	C125.410912,23.149763 126.444786,27.547674 123.858322,26.227283 
	C121.688148,25.119411 122.081894,22.966881 121.959770,20.980270 
	C121.811577,18.569511 123.798401,15.382619 119.548012,13.939429 
	C119.222549,13.340150 119.128189,12.996283 119.552261,12.783991 
z"/>
<path fill="#000000" opacity="1.000000" stroke="none" 
	d="
M76.695206,12.000872 
	C80.684387,12.000099 84.262581,12.000099 87.840782,12.000099 
	C87.835678,12.246901 87.830566,12.493702 87.825462,12.740503 
	C83.326279,12.740503 78.827103,12.740503 74.294662,12.740503 
	C74.346687,12.515385 74.337883,12.385793 74.397804,12.329937 
	C74.513817,12.221801 74.662460,12.097182 74.808289,12.081953 
	C75.297722,12.030840 75.791878,12.024882 76.695206,12.000872 
z"/>
<path fill="#000000" opacity="1.000000" stroke="none" 
	d="
M119.505585,13.492130 
	C116.540016,12.577914 113.763123,11.471811 110.725929,10.262025 
	C114.227242,9.419621 116.862518,11.299730 119.881393,12.598904 
	C119.945213,13.043792 119.819740,13.172017 119.505585,13.492130 
z"/>
<path fill="#000000" opacity="1.000000" stroke="none" 
	d="
M68.036087,13.678930 
	C68.842110,12.616127 69.925407,13.193311 71.053230,13.704527 
	C70.118759,13.768935 69.184296,13.833343 68.036087,13.678930 
z"/>
<path fill="#000000" opacity="1.000000" stroke="none" 
	d="
M134.419907,150.975006 
	C131.048859,150.992126 128.100540,150.992126 125.152214,150.992126 
	C129.663315,149.987625 134.217529,150.119614 138.808090,149.567169 
	C137.486267,150.030746 136.164444,150.494324 134.419907,150.975006 
z"/>
<path fill="#000000" opacity="1.000000" stroke="none" 
	d="
M85.495224,150.518921 
	C89.050812,151.600510 92.419441,152.864090 95.977608,153.580566 
	C92.156250,154.417542 88.749405,153.016586 85.126038,151.406067 
	C85.054993,150.958618 85.180649,150.832855 85.495224,150.518921 
z"/>
<path fill="#000000" opacity="1.000000" stroke="none" 
	d="
M119.005814,150.955612 
	C116.813965,150.791595 114.884331,151.481567 112.226074,150.080002 
	C115.181427,150.080002 117.242668,150.075211 119.303741,150.091309 
	C119.434334,150.092331 119.686333,150.295776 119.672882,150.337158 
	C119.605431,150.544815 119.468376,150.729858 119.005814,150.955612 
z"/>
<path fill="#000000" opacity="1.000000" stroke="none" 
	d="
M158.976349,126.742752 
	C159.766922,126.872162 160.192673,127.375076 159.394363,127.776390 
	C158.614471,128.168427 158.419327,127.706337 158.976349,126.742752 
z"/>
<path fill="#000000" opacity="1.000000" stroke="none" 
	d="
M155.794769,131.429840 
	C155.131897,131.698837 154.268692,131.948303 154.784653,130.985611 
	C155.071381,130.450607 155.670380,130.252075 155.794769,131.429840 
z"/>
<path fill="#000000" opacity="1.000000" stroke="none" 
	d="
M85.034958,60.793224 
	C87.645218,63.166908 88.800156,66.582016 89.679977,70.142143 
	C86.709114,67.887337 85.859177,64.510841 85.034958,60.793224 
z"/>
<path fill="#000000" opacity="1.000000" stroke="none" 
	d="
M103.891083,31.884148 
	C103.802193,32.831161 103.207901,33.173977 102.572754,32.745117 
	C101.983238,32.347069 102.654617,31.996683 103.123665,31.481121 
	C103.463005,31.424206 103.585625,31.555330 103.891083,31.884148 
z"/>
</svg>