<?xml version="1.0" standalone="no"?>
<!DOCTYPE svg PUBLIC "-//W3C//DTD SVG 20010904//EN"
 "http://www.w3.org/TR/2001/REC-SVG-20010904/DTD/svg10.dtd">
<svg version="1.0" xmlns="http://www.w3.org/2000/svg"
 width="202.000000pt" height="163.000000pt" viewBox="0 0 202.000000 163.000000"
 preserveAspectRatio="xMidYMid meet">

<g transform="translate(0.000000,163.000000) scale(0.100000,-0.100000)"
fill="#000000" stroke="none">
<path d="M895 1610 c-75 -12 -173 -44 -247 -82 -68 -33 -75 -44 -15 -21 68 26
264 22 346 -6 120 -42 195 -112 249 -233 17 -36 40 -73 53 -82 26 -18 95 -21
119 -6 11 7 7 10 -18 10 -49 0 -89 26 -113 72 -20 39 -21 58 -4 118 l7 25 -17
-23 c-16 -22 -18 -23 -37 -5 -15 13 -19 28 -16 61 3 41 2 43 -37 62 -23 11
-62 24 -88 29 -27 5 -51 12 -55 16 -13 14 133 -2 165 -18 18 -10 55 -17 82
-17 78 0 149 -18 156 -41 4 -11 22 -23 45 -30 21 -7 55 -25 74 -41 32 -26 36
-35 36 -74 0 -25 7 -58 15 -73 19 -38 10 -45 -80 -61 -69 -12 -71 -13 -143
-89 -68 -71 -73 -78 -67 -110 6 -32 5 -33 -19 -27 -16 4 -30 1 -40 -9 -18 -18
-30 -19 -55 -3 -23 14 -77 -5 -91 -33 -12 -21 -17 -19 135 -50 61 -12 113 -26
116 -31 9 -13 48 88 43 110 -7 26 18 74 53 102 20 16 36 20 58 16 16 -3 60
-10 97 -15 52 -7 81 -18 131 -49 l63 -40 108 81 c98 73 106 82 90 94 -29 21
-72 16 -96 -12 -17 -20 -28 -24 -50 -20 -22 5 -33 1 -53 -21 -16 -17 -25 -22
-25 -13 0 30 -88 189 -141 254 -99 122 -261 226 -416 266 -90 23 -236 31 -318
19z"/>
<path d="M642 1484 c-96 -21 -177 -68 -234 -138 -54 -65 -98 -130 -98 -146 0
-27 31 -5 50 35 25 52 68 98 112 121 45 23 44 11 -1 -20 -35 -25 -91 -91 -91
-109 0 -18 17 -3 38 33 24 42 72 83 111 95 18 5 8 -8 -35 -48 -60 -57 -62 -81
-2 -28 33 28 70 51 84 51 4 0 -11 -13 -34 -29 -52 -38 -57 -48 -33 -60 11 -6
41 -38 67 -71 69 -88 78 -82 69 39 -8 116 2 160 48 208 34 36 87 60 162 72 43
8 37 9 -50 9 -55 0 -129 -6 -163 -14z"/>
<path d="M979 1330 c-83 -44 -119 -124 -100 -224 13 -72 47 -125 168 -264 98
-111 139 -177 153 -244 9 -40 9 -38 6 22 -4 84 -32 139 -135 267 -102 127
-141 206 -141 289 0 65 20 104 78 151 33 27 19 29 -29 3z"/>
<path d="M1035 1308 c-29 -16 -65 -50 -77 -72 -6 -11 7 -2 28 20 22 21 48 44
59 51 25 15 17 16 -10 1z"/>
<path d="M347 1072 c-74 -49 -127 -164 -127 -275 l0 -72 18 27 c9 14 30 38 45
52 16 15 24 31 21 40 -16 41 5 65 89 107 104 52 137 54 180 11 29 -30 31 -34
19 -64 -14 -37 -9 -43 36 -51 l32 -7 -31 62 c-33 66 -107 151 -151 174 -37 19
-98 17 -131 -4z"/>
<path d="M824 1018 c4 -81 30 -130 142 -268 91 -113 126 -184 132 -263 5 -72
-9 -108 -62 -153 -38 -33 -39 -35 -11 -24 87 33 142 116 130 196 -10 69 -59
152 -158 267 -112 129 -155 198 -167 264 -9 46 -9 46 -6 -19z"/>
<path d="M935 905 c53 -67 188 -225 193 -225 6 0 -7 16 -107 135 -96 115 -143
164 -86 90z"/>
<path d="M1785 890 c-8 -16 -27 -37 -41 -47 -19 -12 -25 -23 -21 -42 9 -48 -9
-69 -95 -111 -102 -49 -127 -50 -174 -7 -33 30 -34 34 -23 65 13 38 14 37 -29
45 l-32 7 14 -33 c47 -113 152 -217 218 -217 103 0 197 134 206 292 3 43 2 78
-1 78 -4 0 -13 -13 -22 -30z"/>
<path d="M651 781 c-7 -20 -16 -60 -20 -88 -5 -39 -15 -61 -37 -84 -27 -28
-33 -30 -79 -24 -44 5 -66 7 -136 14 -8 0 -45 19 -82 41 -39 24 -73 38 -80 34
-6 -5 -56 -42 -110 -83 l-99 -76 29 -12 c43 -18 62 -16 88 13 19 20 30 25 50
20 20 -5 31 0 50 20 l25 26 9 -23 c43 -115 107 -215 189 -297 97 -97 202 -160
342 -204 65 -20 95 -23 225 -23 165 0 209 9 344 71 83 38 90 51 16 29 -63 -19
-224 -19 -298 0 -148 38 -245 130 -292 273 -19 56 -32 61 -53 19 -17 -34 0
-75 57 -141 38 -44 42 -52 36 -86 -6 -36 -5 -38 37 -58 24 -11 64 -24 90 -27
26 -4 45 -11 42 -16 -9 -15 -76 -9 -134 11 -30 11 -70 19 -89 20 -74 0 -161
22 -172 42 -6 10 -31 28 -57 39 -69 30 -92 55 -92 100 0 21 -8 54 -17 74 -21
44 -14 52 62 66 82 15 103 28 169 104 53 59 58 69 53 100 -5 33 -5 34 24 28
22 -4 33 -1 43 12 12 16 14 16 45 1 31 -16 33 -16 66 4 19 12 35 27 35 34 0 7
-47 21 -121 36 -67 13 -127 29 -133 36 -9 9 -15 3 -25 -25z"/>
<path d="M1377 532 c-3 -4 -1 -44 4 -90 19 -166 -30 -242 -177 -280 l-69 -17
45 -3 c63 -5 194 14 268 39 73 24 150 89 216 183 57 82 58 83 41 90 -10 4 -22
-9 -39 -42 -29 -57 -59 -90 -109 -121 -54 -33 -55 -21 -1 20 48 35 92 95 79
107 -4 4 -10 2 -12 -5 -12 -34 -68 -95 -102 -113 -60 -30 -60 -25 5 35 58 53
65 80 8 29 -33 -29 -84 -58 -90 -51 -3 3 10 14 29 26 60 37 62 44 19 87 -20
22 -49 53 -62 69 -30 36 -47 48 -53 37z"/>
</g>
</svg>
