<svg height="512pt" viewBox="0 0 512 512" width="512pt" xmlns="http://www.w3.org/2000/svg"><path d="m512 256c0 141.386719-114.613281 256-256 256s-256-114.613281-256-256 114.613281-256 256-256 256 114.613281 256 256zm0 0" fill="#ffce00"/><path d="m512 256c0-9.773438-.566406-19.414062-1.632812-28.902344l-109.929688-109.929687-89.152344 249.832031 95.722656 95.71875c63.644532-46.570312 104.992188-121.8125 104.992188-206.71875zm0 0" fill="#ffa300"/><path d="m403.238281 242.535156c-9.371093-64.117187-72.464843-112.199218-147.238281-112.199218s-137.867188 48.082031-147.238281 112.203124l-29.078125 199.058594c45.910156 43.625 107.984375 70.402344 176.316406 70.402344s130.40625-26.777344 176.316406-70.402344zm0 0" fill="#555a66"/><path d="m432.316406 441.597656-29.082031-199.0625c-9.367187-64.117187-72.460937-112.199218-147.234375-112.199218-.09375 0-.191406.003906-.285156.003906v381.65625c.09375 0 .1875.003906.285156.003906 68.332031 0 130.40625-26.777344 176.316406-70.402344zm0 0" fill="#333940"/><path d="m190.6875 149.519531c0 25.503907-20.675781 46.179688-46.179688 46.179688-25.503906 0-46.179687-20.675781-46.179687-46.179688 0-25.503906 20.675781-46.179687 46.179687-46.179687 25.503907 0 46.179688 20.675781 46.179688 46.179687zm0 0" fill="#555a66"/><path d="m168.59375 149.519531c0 13.300781-10.785156 24.085938-24.085938 24.085938-13.300781 0-24.085937-10.785157-24.085937-24.085938s10.785156-24.085937 24.085937-24.085937c13.300782 0 24.085938 10.785156 24.085938 24.085937zm0 0" fill="#afb4c8"/><path d="m413.671875 149.519531c0 25.503907-20.675781 46.179688-46.179687 46.179688-25.503907 0-46.179688-20.675781-46.179688-46.179688 0-25.503906 20.675781-46.179687 46.179688-46.179687 25.503906 0 46.179687 20.675781 46.179687 46.179687zm0 0" fill="#333940"/><path d="m391.578125 149.519531c0 13.300781-10.785156 24.085938-24.085937 24.085938-13.300782 0-24.085938-10.785157-24.085938-24.085938s10.785156-24.085937 24.085938-24.085937c13.300781 0 24.085937 10.785156 24.085937 24.085937zm0 0" fill="#9196aa"/><path d="m407.019531 256.328125c0 84.496094-68.496093 152.992187-152.992187 152.992187s-152.992188-68.496093-152.992188-152.992187c0-84.492187 68.496094-152.988281 152.992188-152.988281s152.992187 68.496094 152.992187 152.988281zm0 0" fill="#fff"/><path d="m407.019531 256.332031c0-83.933593-67.589843-152.066406-151.304687-152.972656v305.941406c83.714844-.90625 151.304687-69.039062 151.304687-152.96875zm0 0" fill="#f2f6fc"/><path d="m214.566406 241.691406c0-23.527344-20.910156-42.601562-46.707031-42.601562-25.792969 0-46.707031 19.074218-46.707031 42.601562 0 23.53125 20.914062 42.605469 46.707031 42.605469 25.796875 0 46.707031-19.074219 46.707031-42.605469zm0 0" fill="#7e8596"/><path d="m390.847656 241.691406c0-23.527344-20.914062-42.601562-46.707031-42.601562-25.796875 0-46.707031 19.074218-46.707031 42.601562 0 23.53125 20.910156 42.605469 46.707031 42.605469 25.792969 0 46.707031-19.074219 46.707031-42.605469zm0 0" fill="#707789"/><path d="m187.164062 231.1875c0 8.066406-6.539062 14.609375-14.605468 14.609375s-14.605469-6.542969-14.605469-14.609375 6.539063-14.605469 14.605469-14.605469 14.605468 6.539063 14.605468 14.605469zm0 0" fill="#555a66"/><path d="m354.046875 231.1875c0 8.066406-6.539063 14.609375-14.605469 14.609375s-14.605468-6.542969-14.605468-14.609375 6.539062-14.605469 14.605468-14.605469 14.605469 6.539063 14.605469 14.605469zm0 0" fill="#333940"/><path d="m274.6875 319.925781-12.074219 4.640625c-4.257812 1.640625-8.972656 1.640625-13.230469 0l-12.070312-4.640625c-7.117188-2.738281-11.8125-9.574219-11.8125-17.203125 0-10.175781 8.25-18.425781 18.429688-18.425781h24.140624c10.175782 0 18.425782 8.25 18.425782 18.425781.003906 7.625-4.691406 14.464844-11.808594 17.203125zm0 0" fill="#555a66"/><path d="m268.070312 284.292969h-12.355468v41.488281c2.339844.035156 4.683594-.359375 6.902344-1.214844l12.070312-4.640625c7.117188-2.738281 11.8125-9.578125 11.8125-17.203125 0-10.175781-8.25-18.429687-18.429688-18.429687zm0 0" fill="#333940"/></svg>